<svg width="20" height="20" viewBox="0 0 20 20" fill="none" xmlns="http://www.w3.org/2000/svg">
<path d="M16.4749 9.70447C15.8662 8.9936 15.5896 8.37757 15.5896 7.33098V6.97513C15.5896 5.6113 15.2757 4.73257 14.5932 3.85385C13.5414 2.48918 11.7706 1.66669 10.0372 1.66669H9.96347C8.26645 1.66669 6.55121 2.45141 5.48115 3.76069C4.76143 4.65704 4.4111 5.57353 4.4111 6.97513V7.33098C4.4111 8.37757 4.15269 8.9936 3.52573 9.70447C3.06441 10.2282 2.91699 10.9013 2.91699 11.6298C2.91699 12.3591 3.15635 13.0498 3.63671 13.6113C4.26367 14.2844 5.14904 14.7141 6.05345 14.7888C7.36287 14.9382 8.67228 14.9944 10.0007 14.9944C11.3284 14.9944 12.6378 14.9004 13.948 14.7888C14.8516 14.7141 15.737 14.2844 16.3639 13.6113C16.8435 13.0498 17.0837 12.3591 17.0837 11.6298C17.0837 10.9013 16.9362 10.2282 16.4749 9.70447Z" fill="#5570F1"/>
<path opacity="0.4" d="M11.6745 16.0236C11.2579 15.9347 8.71937 15.9347 8.30278 16.0236C7.94664 16.1059 7.56152 16.2972 7.56152 16.7169C7.58223 17.1172 7.81661 17.4706 8.14128 17.6946L8.14045 17.6955C8.56035 18.0228 9.05314 18.2309 9.56912 18.3056C9.84409 18.3434 10.124 18.3417 10.4089 18.3056C10.9241 18.2309 11.4169 18.0228 11.8368 17.6955L11.836 17.6946C12.1606 17.4706 12.395 17.1172 12.4157 16.7169C12.4157 16.2972 12.0306 16.1059 11.6745 16.0236Z" fill="#5570F1"/>
</svg>
