<svg width="45" height="44" viewBox="0 0 45 44" fill="none" xmlns="http://www.w3.org/2000/svg">
<path d="M18.5071 8.03699C18.6174 8.2616 18.6903 8.50214 18.7229 8.74942L19.3262 17.7192L19.6257 22.2277C19.6288 22.6913 19.7015 23.152 19.8416 23.5948C20.2032 24.4539 21.0733 24.9999 22.0199 24.9618L36.444 24.0184C37.0686 24.0081 37.6718 24.2417 38.1208 24.6678C38.495 25.0229 38.7366 25.4874 38.8127 25.987L38.8382 26.2904C38.2413 34.5556 32.171 41.4494 23.9229 43.229C15.6748 45.0086 7.21681 41.2493 3.14098 33.9923C1.96595 31.884 1.23202 29.5666 0.982268 27.1761C0.877935 26.4685 0.831995 25.7538 0.844895 25.0389C0.832014 16.1776 7.14229 8.51676 15.9755 6.66991C17.0386 6.50438 18.0808 7.06718 18.5071 8.03699Z" fill="#97A5EB"/>
<path opacity="0.4" d="M24.3944 0.335118C34.2741 0.586468 42.5777 7.69088 44.176 17.26L44.1607 17.3306L44.1171 17.4333L44.1232 17.7151C44.1006 18.0886 43.9564 18.4478 43.7079 18.7381C43.4491 19.0404 43.0955 19.2462 42.7061 19.3261L42.4687 19.3587L25.827 20.437C25.2734 20.4916 24.7222 20.3131 24.3106 19.9459C23.9675 19.6399 23.7482 19.2269 23.6863 18.7818L22.5693 2.16431C22.5498 2.10812 22.5498 2.04721 22.5693 1.99102C22.5845 1.53297 22.7862 1.1 23.1291 0.788841C23.4721 0.477686 23.9277 0.314276 24.3944 0.335118Z" fill="#FFCC91"/>
</svg>
