<svg width="24" height="24" viewBox="0 0 24 24" fill="none" xmlns="http://www.w3.org/2000/svg">
<path d="M9.34933 14.8579C5.38553 14.8579 2 15.4702 2 17.9175C2 20.3668 5.364 21.0002 9.34933 21.0002C13.3131 21.0002 16.6987 20.3879 16.6987 17.9405C16.6987 15.4913 13.3347 14.8579 9.34933 14.8579Z" fill="white"/>
<path opacity="0.4" d="M9.34935 12.5248C12.049 12.5248 14.2124 10.4062 14.2124 7.76241C14.2124 5.11865 12.049 3 9.34935 3C6.65072 3 4.48633 5.11865 4.48633 7.76241C4.48633 10.4062 6.65072 12.5248 9.34935 12.5248Z" fill="white"/>
<path opacity="0.4" d="M16.1738 7.84873C16.1738 9.19505 15.7609 10.4513 15.0368 11.4948C14.9614 11.6021 15.028 11.7468 15.1591 11.7698C15.3411 11.7995 15.528 11.8177 15.7188 11.8216C17.617 11.8704 19.3205 10.6736 19.7912 8.87116C20.4888 6.19674 18.4419 3.79541 15.8342 3.79541C15.5515 3.79541 15.2804 3.82416 15.0162 3.87686C14.98 3.88453 14.9409 3.90177 14.9213 3.93244C14.8959 3.97172 14.9145 4.02251 14.9399 4.05605C15.7237 5.13214 16.1738 6.44205 16.1738 7.84873Z" fill="white"/>
<path d="M21.7794 15.1693C21.4321 14.4439 20.5935 13.9465 19.3176 13.7022C18.7158 13.5585 17.0857 13.3544 15.57 13.3831C15.5475 13.386 15.5348 13.4013 15.5328 13.4109C15.5299 13.4262 15.5368 13.4492 15.5661 13.4655C16.2667 13.8047 18.9741 15.2804 18.6336 18.3927C18.619 18.5288 18.7295 18.6438 18.8675 18.6246C19.5338 18.5317 21.2481 18.1704 21.7794 17.0474C22.074 16.4533 22.074 15.7634 21.7794 15.1693Z" fill="white"/>
</svg>
