<svg width="24" height="24" viewBox="0 0 24 24" fill="none" xmlns="http://www.w3.org/2000/svg">
<path fill-rule="evenodd" clip-rule="evenodd" d="M16.5134 21.5H8.16555C5.09919 21.5 2.74679 20.3925 3.41498 15.9348L4.19301 9.8936C4.60491 7.66934 6.02367 6.81808 7.26852 6.81808H17.447C18.7102 6.81808 20.0466 7.73342 20.5225 9.8936L21.3006 15.9348C21.8681 19.889 19.5797 21.5 16.5134 21.5Z" stroke="#53545C" stroke-width="1.5" stroke-linecap="round" stroke-linejoin="round"/>
<path d="M16.6502 6.5984C16.6502 4.21233 14.716 2.27804 12.3299 2.27804V2.27804C11.1809 2.27317 10.0773 2.7262 9.26308 3.53695C8.44889 4.34771 7.9912 5.44939 7.99121 6.5984H7.99121" stroke="#53545C" stroke-width="1.5" stroke-linecap="round" stroke-linejoin="round"/>
<path d="M15.296 11.1018H15.2502" stroke="#53545C" stroke-width="1.5" stroke-linecap="round" stroke-linejoin="round"/>
<path d="M9.46492 11.1018H9.41916" stroke="#53545C" stroke-width="1.5" stroke-linecap="round" stroke-linejoin="round"/>
</svg>
