<svg width="61" height="60" viewBox="0 0 61 60" fill="none" xmlns="http://www.w3.org/2000/svg">
<path fill-rule="evenodd" clip-rule="evenodd" d="M52.7832 40.7868L50.8609 25.3002C49.6899 19.7741 46.3757 17.5 43.2161 17.5H17.8293C14.6255 17.5 11.2009 19.6149 10.2066 25.3002L8.26226 40.7868C6.67144 52.1574 12.5265 55 20.1713 55H40.8962C48.5189 55 54.1972 50.8839 52.7832 40.7868ZM23.2425 30.3714C22.0222 30.3714 21.033 29.3533 21.033 28.0973C21.033 26.8414 22.0222 25.8232 23.2425 25.8232C24.4627 25.8232 25.452 26.8414 25.452 28.0973C25.452 29.3533 24.4627 30.3714 23.2425 30.3714ZM35.5051 28.0973C35.5051 29.3533 36.4943 30.3714 37.7145 30.3714C38.9348 30.3714 39.924 29.3533 39.924 28.0973C39.924 26.8414 38.9348 25.8232 37.7145 25.8232C36.4943 25.8232 35.5051 26.8414 35.5051 28.0973Z" fill="#BEC0CA"/>
<path opacity="0.4" d="M42.9347 16.9358C42.9425 17.1297 42.9053 17.3228 42.8258 17.5H39.233C39.1634 17.3199 39.1266 17.1288 39.1242 16.9358C39.1242 12.1421 35.2247 8.25596 30.4144 8.25596C25.6041 8.25596 21.7046 12.1421 21.7046 16.9358C21.7376 17.1224 21.7376 17.3134 21.7046 17.5H18.0247C17.9918 17.3134 17.9918 17.1224 18.0247 16.9358C18.3043 10.2648 23.8125 5 30.5124 5C37.2122 5 42.7204 10.2648 43 16.9358H42.9347Z" fill="#BEC0CA"/>
</svg>
