<svg width="20" height="20" viewBox="0 0 20 20" fill="none" xmlns="http://www.w3.org/2000/svg">
<path fill-rule="evenodd" clip-rule="evenodd" d="M13.7615 17.9167H6.80495C4.24965 17.9167 2.28931 16.9937 2.84614 13.279L3.4945 8.24466C3.83775 6.39111 5.02005 5.68173 6.05743 5.68173H14.5395C15.5921 5.68173 16.7058 6.44451 17.1024 8.24466L17.7508 13.279C18.2237 16.5742 16.3168 17.9167 13.7615 17.9167Z" stroke="#130F26" stroke-width="1.5" stroke-linecap="round" stroke-linejoin="round"/>
<path d="M13.876 5.49865C13.876 3.51026 12.2641 1.89835 10.2757 1.89835V1.89835C9.31822 1.89429 8.39854 2.27182 7.72005 2.94744C7.04156 3.62307 6.66015 4.54114 6.66016 5.49865H6.66016" stroke="#130F26" stroke-width="1.5" stroke-linecap="round" stroke-linejoin="round"/>
<path d="M12.7471 9.25151H12.709" stroke="#130F26" stroke-width="1.5" stroke-linecap="round" stroke-linejoin="round"/>
<path d="M7.88776 9.25151H7.84962" stroke="#130F26" stroke-width="1.5" stroke-linecap="round" stroke-linejoin="round"/>
</svg>
